<svg xmlns="http://www.w3.org/2000/svg" viewBox="0 0 1600 900" width="1600" height="900"><defs><linearGradient id="sky" x1="0" x2="0" y1="0" y2="1"><stop offset="0%" stop-color="#0ea5e9"/><stop offset="100%" stop-color="#1e3a8a"/></linearGradient><linearGradient id="sea" x1="0" x2="0" y1="0" y2="1"><stop offset="0%" stop-color="#0ea5e9"/><stop offset="100%" stop-color="#0284c7"/></linearGradient><linearGradient id="road" x1="0" x2="1" y1="0" y2="0"><stop offset="0%" stop-color="#0b1a2f"/><stop offset="100%" stop-color="#112342"/></linearGradient></defs><rect x="0" y="0" width="1600" height="540" fill="url(#sky)"/><g fill="#ffffff33"><circle cx="320" cy="180" r="80"/><circle cx="460" cy="210" r="100"/><circle cx="620" cy="170" r="70"/><circle cx="1040" cy="160" r="70"/><circle cx="1160" cy="200" r="100"/></g><g fill="#ffffff" opacity="0.95" transform="translate(1140,180)"><path d="M 0 40 L 240 40 L 330 10 L 330 70 L 240 40 L 0 40 Z"/><rect x="-30" y="30" width="42" height="22" rx="4"/><rect x="160" y="25" width="26" height="30" rx="3"/></g><rect x="0" y="540" width="1600" height="160" fill="url(#sea)"/><g fill="#ffffff22"><path d="M0 620 Q 160 600 320 620 T 640 620 T 960 620 T 1280 620 T 1600 620 V 700 H 0 Z"/><path d="M0 660 Q 180 640 360 660 T 720 660 T 1080 660 T 1440 660 T 1600 660 V 700 H 0 Z"/></g><g transform="translate(260,560)" opacity="0.95"><path d="M 0 120 H 560 L 500 180 H 100 Z" fill="#0f172a"/><rect x="90" y="50" width="220" height="70" fill="#ffffff"/><rect x="330" y="24" width="240" height="96" fill="#1f2937"/><rect x="370" y="12" width="36" height="36" fill="#ffffff"/><rect x="414" y="12" width="36" height="36" fill="#ffffff"/><rect x="458" y="12" width="36" height="36" fill="#ffffff"/></g><rect x="0" y="700" width="1600" height="200" fill="url(#road)"/><g stroke="#e5e7eb" stroke-width="10" stroke-linecap="round" opacity="0.9"><line x1="120" y1="800" x2="280" y2="800"/><line x1="360" y1="800" x2="520" y2="800"/><line x1="600" y1="800" x2="760" y2="800"/><line x1="840" y1="800" x2="1000" y2="800"/><line x1="1080" y1="800" x2="1240" y2="800"/><line x1="1320" y1="800" x2="1480" y2="800"/></g><g opacity="0.98"><g transform="translate(340,740)"><rect x="0" y="0" width="260" height="74" rx="10" fill="#e5e7eb"/><rect x="200" y="-46" width="160" height="98" rx="10" fill="#ffffff"/><circle cx="60" cy="86" r="20" fill="#0ea5e9"/><circle cx="220" cy="86" r="20" fill="#0ea5e9"/></g><g transform="translate(900,760)"><rect x="0" y="0" width="240" height="68" rx="10" fill="#e5e7eb"/><rect x="-120" y="-42" width="150" height="92" rx="10" fill="#ffffff"/><circle cx="50" cy="82" r="18" fill="#0284c7"/><circle cx="190" cy="82" r="18" fill="#0284c7"/></g></g></svg>