<svg xmlns="http://www.w3.org/2000/svg" viewBox="0 0 1600 900" width="1600" height="900"><defs><linearGradient id="road" x1="0" x2="1" y1="0" y2="0"><stop offset="0%" stop-color="#0b1a2f"/><stop offset="100%" stop-color="#112342"/></linearGradient></defs><rect x="0" y="700" width="1600" height="200" fill="url(#road)"/><g stroke="#e5e7eb" stroke-width="12" stroke-linecap="round" opacity="0.9"><line x1="120" y1="800" x2="300" y2="800"/><line x1="380" y1="800" x2="560" y2="800"/><line x1="640" y1="800" x2="820" y2="800"/><line x1="900" y1="800" x2="1080" y2="800"/><line x1="1160" y1="800" x2="1340" y2="800"/></g><g opacity="0.98"><g transform="translate(420,740)"><rect x="0" y="0" width="260" height="74" rx="10" fill="#e5e7eb"/><rect x="200" y="-46" width="160" height="98" rx="10" fill="#ffffff"/><circle cx="60" cy="86" r="20" fill="#0ea5e9"/><circle cx="220" cy="86" r="20" fill="#0ea5e9"/></g><g transform="translate(980,760)"><rect x="0" y="0" width="240" height="68" rx="10" fill="#e5e7eb"/><rect x="-120" y="-42" width="150" height="92" rx="10" fill="#ffffff"/><circle cx="50" cy="82" r="18" fill="#0284c7"/><circle cx="190" cy="82" r="18" fill="#0284c7"/></g></g></svg>