<svg xmlns="http://www.w3.org/2000/svg" viewBox="0 0 1600 900" width="1600" height="900"><defs><linearGradient id="sea" x1="0" x2="0" y1="0" y2="1"><stop offset="0%" stop-color="#0ea5e9"/><stop offset="100%" stop-color="#0284c7"/></linearGradient></defs><rect x="0" y="0" width="1600" height="900" fill="url(#sea)"/><g fill="#ffffff22"><path d="M0 600 Q 160 560 320 600 T 640 600 T 960 600 T 1280 600 T 1600 600 V 900 H 0 Z"/><path d="M0 680 Q 180 640 360 680 T 720 680 T 1080 680 T 1440 680 T 1600 680 V 900 H 0 Z"/></g><g transform="translate(260,520)" opacity="0.95"><path d="M 0 140 H 560 L 500 210 H 90 Z" fill="#0f172a"/><rect x="80" y="60" width="220" height="80" fill="#ffffff"/><rect x="320" y="30" width="260" height="110" fill="#1f2937"/><rect x="360" y="16" width="38" height="38" fill="#ffffff"/><rect x="408" y="16" width="38" height="38" fill="#ffffff"/><rect x="456" y="16" width="38" height="38" fill="#ffffff"/></g></svg>